{"title":"D-Day 2013 Hindi Movies PDVD Rip XviD Best Quality Sample Includ","uid":8724158,"size":740125968,"categoryP":"video","categoryS":"movies","magnet":"?xt=urn:btih:6397c21d5975882de9862373c5bc4cbc97113b03&amp;dn=D-Day+2013+Hindi+Movies+PDVD+Rip+XviD+Best+Quality+Sample+Includ&amp;tr=udp%3A%2F%2Ftracker.openbittorrent.com%3A80&amp;tr=udp%3A%2F%2Fopen.demonii.com%3A1337&amp;tr=udp%3A%2F%2Ftracker.coppersurfer.tk%3A6969&amp;tr=udp%3A%2F%2Fexodus.desync.com%3A6969","seeders":1,"leechers":0,"uploader":"basicssom","files":2,"time":1374478001,"description":"D-Day 2013 Hindi Movies PDVD Rip XviD Best Quality Sample Included ~ â˜»rDXâ˜»\n\nScreen Shots :\n &lt;a href=&quot;\nhttp://myimghosting.serveftp.com/13/DDay.html&quot; rel=&quot;nofollow&quot; target=&quot;_NEW&quot;&gt;\nhttp://myimghosting.serveftp.com/13/DDay.html&lt;/a&gt;\n &lt;a href=&quot;\nhttp://myimghost.cwahi.net/DDay.html&quot; rel=&quot;nofollow&quot; target=&quot;_NEW&quot;&gt;\nhttp://myimghost.cwahi.net/DDay.html&lt;/a&gt;\n &lt;a href=&quot;\nhttp://users2.jabry.com/myimghost/DDay/DDay.jpg&quot; rel=&quot;nofollow&quot; target=&quot;_NEW&quot;&gt;\nhttp://users2.jabry.com/myimghost/DDay/DDay.jpg&lt;/a&gt;\n &lt;a href=&quot;\nhttp://users2.jabry.com/myimghost/DDay/DDay1.jpg&quot; rel=&quot;nofollow&quot; target=&quot;_NEW&quot;&gt;\nhttp://users2.jabry.com/myimghost/DDay/DDay1.jpg&lt;/a&gt;\n\nFormat                                   : AVI\nFormat/Info                              : Audio Video Interleave\nFile size                                : 692 MiB\nDuration                                 : 2h 25mn\nOverall bit rate                         : 663 Kbps\nWriting library                          : MPlayer\n\nVideo\nID                                       : 0\nFormat                                   : MPEG-4 Visual\nFormat profile                           : Advanced Simple@L5\nFormat settings, BVOP                    : 1\nFormat settings, QPel                    : No\nFormat settings, GMC                     : No warppoints\nFormat settings, Matrix                  : Default (H.263)\nMuxing mode                              : Packed bitstream\nCodec ID                                 : XVID\nCodec ID/Hint                            : XviD\nDuration                                 : 2h 25mn\nBit rate                                 : 578 Kbps\nWidth                                    : 640 pixels\nHeight                                   : 272 pixels\nDisplay aspect ratio                     : 2.35:1\nFrame rate                               : 25.000 fps\nColor space                              : YUV\nChroma subsampling                       : 4:2:0\nBit depth                                : 8 bits\nScan type                                : Progressive\nCompression mode                         : Lossy\nBits/(Pixel*Frame)                       : 0.133\nStream size                              : 603 MiB (87%)\nWriting library                          : XviD 1.2.1 (UTC 2008-12-04)\n\nAudio\nID                                       : 1\nFormat                                   : MPEG Audio\nFormat version                           : Version 1\nFormat profile                           : Layer 3\nMode                                     : Joint stereo\nMode extension                           : MS Stereo\nCodec ID                                 : 55\nCodec ID/Hint                            : MP3\nDuration                                 : 2h 25mn\nBit rate mode                            : Constant\nBit rate                                 : 80.0 Kbps\nChannel(s)                               : 2 channels\nSampling rate                            : 32.0 KHz\nCompression mode                         : Lossy\nStream size                              : 83.5 MiB (12%)\nAlignment                                : Split accross interleaves\nInterleave, duration                     : 500 ms (12.50 video frames)\nInterleave, preload duration             : 500 ms\nWriting library                          : LAME3.99r\nEncoding settings                        : -m j -V 4 -q 2 -lowpass 13.5 -b 80","torrent":{"xt":"urn:btih:6397c21d5975882de9862373c5bc4cbc97113b03","amp;dn":"D-Day+2013+Hindi+Movies+PDVD+Rip+XviD+Best+Quality+Sample+Includ","amp;tr":["udp%3A%2F%2Ftracker.openbittorrent.com%3A80","udp%3A%2F%2Fopen.demonii.com%3A1337","udp%3A%2F%2Ftracker.coppersurfer.tk%3A6969","udp%3A%2F%2Fexodus.desync.com%3A6969"],"infoHash":"6397c21d5975882de9862373c5bc4cbc97113b03","infoHashBuffer":{"type":"Buffer","data":[99,151,194,29,89,117,136,45,233,134,35,115,197,188,76,188,151,17,59,3]},"announce":[],"urlList":[]}}